<svg width="39" height="36" viewBox="0 0 39 36" fill="none" xmlns="http://www.w3.org/2000/svg">
<circle cx="25" cy="22" r="14" fill="#BEC3D1" fill-opacity="0.6"/>
<circle cx="16" cy="15" r="12" fill="white"/>
<path d="M15.5 0C12.4344 0 9.43763 0.909059 6.88867 2.61222C4.33971 4.31538 2.35303 6.73615 1.17987 9.56841C0.00671596 12.4007 -0.300236 15.5172 0.297835 18.5239C0.895906 21.5306 2.37214 24.2924 4.53985 26.4601C6.70756 28.6279 9.4694 30.1041 12.4761 30.7022C15.4828 31.3002 18.5993 30.9933 21.4316 29.8201C24.2638 28.647 26.6846 26.6603 28.3878 24.1113C30.0909 21.5624 31 18.5656 31 15.5C30.9957 11.3905 29.3612 7.45051 26.4554 4.54464C23.5495 1.63876 19.6095 0.00433973 15.5 0ZM26.2308 17.8846H23.4616L21.3751 23.101C21.2867 23.3224 21.1339 23.5123 20.9365 23.646C20.7392 23.7798 20.5062 23.8513 20.2677 23.8513C20.0293 23.8513 19.7963 23.7798 19.5989 23.646C19.4015 23.5123 19.2488 23.3224 19.1604 23.101L15.5 13.9411L11.8381 23.101C11.7497 23.3224 11.597 23.5123 11.3996 23.646C11.2022 23.7798 10.9692 23.8513 10.7308 23.8513C10.4923 23.8513 10.2594 23.7798 10.062 23.646C9.86457 23.5123 9.71181 23.3224 9.62342 23.101L7.53688 17.8846H4.76924C4.45302 17.8846 4.14975 17.759 3.92615 17.5354C3.70255 17.3118 3.57693 17.0085 3.57693 16.6923C3.57693 16.3761 3.70255 16.0728 3.92615 15.8492C4.14975 15.6256 4.45302 15.5 4.76924 15.5H6.58452L4.85419 11.1779C4.79547 11.0325 4.76597 10.8769 4.76738 10.7201C4.76878 10.5633 4.80106 10.4083 4.86237 10.2639C4.98619 9.97239 5.22074 9.74199 5.51443 9.62341C5.80812 9.50483 6.13689 9.50777 6.4284 9.63159C6.71992 9.75541 6.95032 9.98996 7.0689 10.2837L10.7308 19.4436L14.3926 10.2837C14.481 10.0622 14.6338 9.87233 14.8312 9.73858C15.0286 9.60483 15.2616 9.53334 15.5 9.53334C15.7384 9.53334 15.9714 9.60483 16.1688 9.73858C16.3662 9.87233 16.519 10.0622 16.6074 10.2837L20.2692 19.4436L23.9311 10.2837C24.0497 9.98996 24.2801 9.75541 24.5716 9.63159C24.8631 9.50777 25.1919 9.50483 25.4856 9.62341C25.7793 9.74199 26.0138 9.97239 26.1376 10.2639C26.2615 10.5554 26.2644 10.8842 26.1458 11.1779L24.4155 15.5H26.2308C26.547 15.5 26.8503 15.6256 27.0739 15.8492C27.2975 16.0728 27.4231 16.3761 27.4231 16.6923C27.4231 17.0085 27.2975 17.3118 27.0739 17.5354C26.8503 17.759 26.547 17.8846 26.2308 17.8846Z" fill="#BEC3D1"/>
</svg>
