<svg width="20" height="20" viewBox="0 0 20 20" fill="none" xmlns="http://www.w3.org/2000/svg">
<path d="M3.05257 11.3718C5.31953 12.9044 8.47707 12.2591 10.0154 10.0004C11.5537 7.74174 14.6302 7.0964 16.9782 8.62908C19.1642 10.0811 19.8119 12.9044 18.5974 15.0825C21.2692 10.5651 20.0547 4.67638 15.5208 1.6917C10.906 -1.37365 4.67182 -0.163647 1.59524 4.43438C1.51428 4.59572 1.43331 4.75705 1.35235 4.83772C0.218873 7.17707 0.947538 9.91975 3.05257 11.3718Z" fill="#E11D1D"/>
<path d="M16.9823 8.62817C14.7153 7.09549 11.5578 7.74083 10.0195 9.99951C8.48122 12.2582 5.40463 12.9035 3.05671 11.3709C0.870719 9.91885 0.223017 7.09549 1.43746 4.91748C-1.31528 9.43484 -0.0198701 15.3235 4.51404 18.3082C9.12892 21.3736 15.3631 20.1636 18.4396 15.5656C18.5206 15.4042 18.6016 15.2429 18.6825 15.1622C19.816 12.8229 19.0873 10.0802 16.9823 8.62817Z" fill="#1454FF"/>
</svg>
