<svg width="43" height="32" viewBox="0 0 43 32" fill="none" xmlns="http://www.w3.org/2000/svg">
<path d="M42.8615 31.4801C42.7703 31.6382 42.6392 31.7695 42.4813 31.8607C42.3234 31.952 42.1442 32 41.9619 32H17.0375C16.8552 31.9998 16.6763 31.9516 16.5186 31.8603C16.3608 31.7689 16.2299 31.6377 16.1389 31.4796C16.0478 31.3216 16 31.1423 16 30.9599C16 30.7774 16.048 30.5982 16.1391 30.4402C18.1162 27.0178 21.163 24.5637 24.7186 23.4004C22.9598 22.352 21.5934 20.7546 20.8291 18.8533C20.0648 16.9521 19.9449 14.8522 20.4879 12.8762C21.0308 10.9001 22.2066 9.15716 23.8346 7.91496C25.4626 6.67276 27.4528 6 29.4997 6C31.5465 6 33.5367 6.67276 35.1648 7.91496C36.7928 9.15716 37.9685 10.9001 38.5115 12.8762C39.0545 14.8522 38.9346 16.9521 38.1703 18.8533C37.406 20.7546 36.0395 22.352 34.2808 23.4004C37.8364 24.5637 40.8831 27.0178 42.8602 30.4402C42.9516 30.5982 42.9998 30.7774 43 30.96C43.0002 31.1425 42.9525 31.3219 42.8615 31.4801Z" fill="#4F7FFF" fill-opacity="0.6"/>
<path d="M32.8307 31.3601C32.7193 31.5547 32.559 31.7163 32.366 31.8286C32.173 31.9409 31.9541 32 31.7312 32H1.268C1.0453 31.9998 0.826582 31.9405 0.633805 31.828C0.441028 31.7156 0.280979 31.554 0.169729 31.3595C0.0584783 31.165 -5.71316e-05 30.9444 4.18421e-08 30.7198C5.72153e-05 30.4953 0.0587049 30.2747 0.170054 30.0803C2.58648 25.868 6.31029 22.8476 10.6561 21.4158C8.50645 20.1255 6.83633 18.1594 5.90219 15.8195C4.96805 13.4795 4.82154 10.895 5.48515 8.46297C6.14877 6.03091 7.58582 3.88573 9.57561 2.35687C11.5654 0.828009 13.9979 0 16.4996 0C19.0013 0 21.4338 0.828009 23.4236 2.35687C25.4134 3.88573 26.8504 6.03091 27.5141 8.46297C28.1777 10.895 28.0312 13.4795 27.097 15.8195C26.1629 18.1594 24.4928 20.1255 22.3431 21.4158C26.6889 22.8476 30.4127 25.868 32.8292 30.0803C32.9408 30.2747 32.9997 30.4953 33 30.72C33.0003 30.9446 32.9419 31.1654 32.8307 31.3601Z" fill="#4F7FFF"/>
</svg>
