<svg width="33" height="35" viewBox="0 0 33 35" fill="none" xmlns="http://www.w3.org/2000/svg">
<ellipse cx="15" cy="30.5" rx="15" ry="4.5" fill="#4F7FFF" fill-opacity="0.6"/>
<path d="M9.6 19.9308V30.0069C9.6 30.5716 9.4272 31.0453 9.0816 31.428C8.736 31.8106 8.3088 32.0013 7.8 32C7.2912 31.9987 6.864 31.8073 6.5184 31.426C6.1728 31.0446 6 30.5716 6 30.0069L6 1.99308C6 1.42837 6.1728 0.95535 6.5184 0.574007C6.864 0.192665 7.2912 0.00132872 7.8 0H20.715C21.135 0 21.51 0.149481 21.84 0.448443C22.17 0.747405 22.38 1.12941 22.47 1.59446L22.92 3.98616H31.2C31.71 3.98616 32.1378 4.17749 32.4834 4.56017C32.829 4.94284 33.0012 5.41586 33 5.97924V21.9239C33 22.4886 32.8272 22.9623 32.4816 23.3449C32.136 23.7276 31.7088 23.9183 31.2 23.917H21.885C21.465 23.917 21.09 23.7675 20.76 23.4685C20.43 23.1695 20.22 22.7875 20.13 22.3225L19.68 19.9308H9.6Z" fill="#4F7FFF"/>
</svg>
